<?xml version="1.0" encoding="utf-8"?>
<!-- Generator: Adobe Illustrator 25.4.1, SVG Export Plug-In . SVG Version: 6.00 Build 0)  -->
<svg version="1.1" id="图层_1" xmlns="http://www.w3.org/2000/svg" xmlns:xlink="http://www.w3.org/1999/xlink" x="0px" y="0px"
	 viewBox="0 0 256 256" style="enable-background:new 0 0 256 256;" xml:space="preserve">
<style type="text/css">
	.st0{clip-path:url(#SVGID_00000183226783009476233900000015769931733734224306_);}
</style>
<g>
	<g>
		<defs>
			<path id="SVGID_1_" d="M127.6,28.6l-52.7,72.1l13.8,17.9L127.6,66l39.6,52.7l13.8-17.9C181.1,100.7,127.6,28.6,127.6,28.6z
				 M49.9,81.7H20.8l106.8,145.7L235.2,81.7h-29.9l-77.7,104.6C127.6,186.3,49.9,81.7,49.9,81.7z M127.6,106.7L113.1,125l14.6,19.4
				l14.2-18.3C141.8,126.1,127.6,106.7,127.6,106.7z M49.2,134.7l14.6,20.9l-13.4,16.4H23L49.2,134.7L49.2,134.7z M71.6,168
				l12.7,17.2l-11.6,14.6H46.9L71.6,168z M182.2,168l-12,16.4l11.6,14.2h24.2L182.2,168z M194.1,153.4l13-17.5l25.8,36.2l-24.7-1.1
				C208.3,171,194.1,153.4,194.1,153.4z M207.2,54.8l-23.5,31.8l-12.3-15.3l12.3-16.4H207.2z M71.6,54.8l12.7,16.4L71.6,87.7
				L46.9,54.8L71.6,54.8L71.6,54.8z"/>
		</defs>
		<clipPath id="SVGID_00000111176789697372696950000002619046468674325890_">
			<use xlink:href="#SVGID_1_"  style="overflow:visible;"/>
		</clipPath>
		<g style="clip-path:url(#SVGID_00000111176789697372696950000002619046468674325890_);">
			<g>
				<defs>
					<rect id="SVGID_00000155147273487261704000000000104731896242388628_" x="15.8" y="23.6" width="224.4" height="208.7"/>
				</defs>
				<clipPath id="SVGID_00000146460239194857559110000011567292006219942811_">
					<use xlink:href="#SVGID_00000155147273487261704000000000104731896242388628_"  style="overflow:visible;"/>
				</clipPath>
				<g style="clip-path:url(#SVGID_00000146460239194857559110000011567292006219942811_);">
					
						<image style="overflow:visible;" width="469" height="436" xlink:href="C63426D9.jpg"  transform="matrix(0.48 0 0 0.48 15.52 23.52)">
					</image>
				</g>
			</g>
		</g>
	</g>
</g>
</svg>
